<svg
	xmlns="http://www.w3.org/2000/svg"
	viewBox="0 0 65.91 63.66">
	<g fill="#c80019">
		<path class="cls-1" d="M64.4,27c-1.26,1.35-5.83,5.31-7.34,5.31-.6,0-1.37-.33-1.37-1a19.93,19.93,0,0,1,1.19-4L63.64,7.59a13.5,13.5,0,0,0,.85-4.13c0-1.87-.77-3.46-3.38-3.46-8,0-20.69,14.17-25.24,19.92H35.7l4-12.59a15.4,15.4,0,0,0,.92-4.55C40.67,1.17,39.49,0,36.88,0c-7.51,0-20,13.92-24.05,19.75h-.17L17,7A13.55,13.55,0,0,0,18,3,2.68,2.68,0,0,0,15.11,0C9.53,0,3.62,6.75.42,10.71c0,0-.82,1-.17,1.56a1.06,1.06,0,0,0,1.44,0L4,9.7C5.49,8.18,7.1,6.75,8.86,6.75c1,0,1.35.75,1.35,1.69a12.89,12.89,0,0,1-.33,2.1L1.09,37.09c-.19,1,1.6,1.48,2.45,1.48,2.14,0,3.12-.63,3.37-1.32l1.53-4.42A49.67,49.67,0,0,1,19,15.6c2.7-2.95,7.77-8.85,12.32-8.85,1.18,0,1.6.93,1.6,2.1a24.28,24.28,0,0,1-1.43,6.25l-7.38,22c-.16.69.58,1.66,2.87,1.67,2.11,0,2.7-.74,3-1.51l1.4-3.45A52.66,52.66,0,0,1,40,18.48c2.71-3.3,10.39-11.81,14.78-11.81a1.93,1.93,0,0,1,1.94,2,14.4,14.4,0,0,1-.92,3.47L49,31.73a13.91,13.91,0,0,0-1,4c0,2.19,1.52,2.86,3.12,2.86,4.64,0,8.61-3.8,11.91-7.42l2.61-2.88s.73-.75,0-1.36A.87.87,0,0,0,64.4,27Z"/>
		<rect class="cls-1" x="1.6" y="49.59" width="58.37" height="14.07"/>
	</g>
</svg>